# xmcd CD database file
#
# Track frame offsets:
#	150
#	15380
#	34785
#	54283
#	78262
#	92907
#	105642
#	121728
#	136512
#	154814
#	168864
#
# Disc length: 2491 seconds
#
# Revision: 1
# Processed by: cddbd v1.5.2PL0 Copyright (c) Steve Scherf et al.
# Submitted via: CDValet v3.40 - Copyright (c) 1996 - 1998 Greg Leichner
#
DISCID=7209b90b
DTITLE=Moffatt, Katy - Fewer Things
DYEAR=1900
DGENRE=
TTITLE0=Fewer Things All The Time
TTITLE1=Getting Over You
TTITLE2=What Lack Of Love Has Done
TTITLE3=Lefty's Last Ride
TTITLE4=Midwester
TTITLE5=She's All He Ever Sees In Me
TTITLE6=Still Blue
TTITLE7=Trainwreck
TTITLE8=Truth About You
TTITLE9=Walkin' The Animal
TTITLE10=Whistlin' In The Dark
EXTD=
EXTT0=
EXTT1=
EXTT2=
EXTT3=
EXTT4=
EXTT5=
EXTT6=
EXTT7=
EXTT8=
EXTT9=
EXTT10=
PLAYORDER=
